<mxfile host="app.diagrams.net" modified="2023-10-16T06:35:35.105Z" agent="Mozilla/5.0 (iPhone; CPU iPhone OS 15_7_9 like Mac OS X) AppleWebKit/605.1.15 (KHTML, like Gecko) Version/15.6.6 Mobile/15E148 Safari/604.1" version="22.0.4" etag="Gb5-lnR09NS1ptUSzaXC" type="github">
  <diagram name="Halaman-1" id="d0x0kEB17tLHyfAHV5FV">
    <mxGraphModel>
      <root>
        <mxCell id="0" />
        <mxCell id="1" parent="0" />
      </root>
    </mxGraphModel>
  </diagram>
</mxfile>
